<svg xmlns="http://www.w3.org/2000/svg" xmlns:xlink="http://www.w3.org/1999/xlink" zoomAndPan="magnify" preserveAspectRatio="xMidYMid meet" version="1.0" viewBox="2.17 440.31 1476.01 467.73"><defs><g/><clipPath id="24c043dc43"><rect x="0" width="1486" y="0" height="619"/></clipPath></defs><g transform="matrix(1, 0, 0, 1, 0, 434)"><g clip-path="url(#24c043dc43)"><g fill="#fafafa" fill-opacity="1"><g transform="translate(5.810116, 466.149933)"><g><path d="M 371.28125 0 L 341.546875 -60.671875 L 122.546875 -60.671875 L 93.421875 0 L -3.640625 0 L 234.78125 -459.84375 L 473.796875 0 Z M 231.140625 -286.34375 L 163.1875 -145.59375 L 300.296875 -145.59375 Z M 231.140625 -286.34375 "/></g></g></g><g fill="#fafafa" fill-opacity="1"><g transform="translate(445.639783, 466.149933)"><g><path d="M 339.125 -152.875 L 339.125 0 L 253.578125 0 L 253.578125 -152.875 C 253.578125 -177.550781 247.410156 -196.054688 235.078125 -208.390625 C 222.742188 -220.722656 207.679688 -226.890625 189.890625 -226.890625 C 177.347656 -226.890625 165.414062 -223.753906 154.09375 -217.484375 C 142.769531 -211.210938 133.671875 -202.515625 126.796875 -191.390625 C 119.921875 -180.273438 116.484375 -167.4375 116.484375 -152.875 L 116.484375 0 L 30.328125 0 L 30.328125 -451.953125 L 116.484375 -451.953125 L 116.484375 -284.515625 C 124.566406 -294.628906 136.59375 -301.910156 152.5625 -306.359375 C 168.539062 -310.804688 183.40625 -313.03125 197.15625 -313.03125 C 225.0625 -313.03125 249.734375 -305.851562 271.171875 -291.5 C 292.609375 -277.144531 309.289062 -257.832031 321.21875 -233.5625 C 333.15625 -209.289062 339.125 -182.394531 339.125 -152.875 Z M 339.125 -152.875 "/></g></g></g><g fill="#fafafa" fill-opacity="1"><g transform="translate(780.517008, 466.149933)"><g><path d="M 30.328125 -451.953125 L 116.484375 -451.953125 L 116.484375 0 L 30.328125 0 Z M 30.328125 -451.953125 "/></g></g></g><g fill="#fafafa" fill-opacity="1"><g transform="translate(896.995942, 466.149933)"><g><path d="M 26.09375 -146.8125 L 26.09375 -306.359375 L 112.234375 -306.359375 L 112.234375 -154.09375 C 112.234375 -131.84375 118.398438 -113.738281 130.734375 -99.78125 C 143.066406 -85.832031 157.929688 -78.859375 175.328125 -78.859375 C 188.265625 -78.859375 200.296875 -81.179688 211.421875 -85.828125 C 222.546875 -90.484375 231.644531 -98.375 238.71875 -109.5 C 245.789062 -120.625 249.328125 -135.488281 249.328125 -154.09375 L 249.328125 -306.359375 L 334.875 -306.359375 L 334.875 0 L 249.328125 0 L 249.328125 -21.84375 C 240.429688 -12.132812 227.59375 -4.953125 210.8125 -0.296875 C 194.03125 4.347656 178.359375 6.671875 163.796875 6.671875 C 137.109375 6.671875 113.347656 -0.300781 92.515625 -14.25 C 71.679688 -28.207031 55.398438 -46.8125 43.671875 -70.0625 C 31.953125 -93.320312 26.09375 -118.90625 26.09375 -146.8125 Z M 26.09375 -146.8125 "/></g></g></g><g fill="#fafafa" fill-opacity="1"><g transform="translate(1231.873099, 466.149933)"><g><path d="M 30.328125 -451.953125 L 116.484375 -451.953125 L 116.484375 0 L 30.328125 0 Z M 30.328125 -451.953125 "/></g></g></g><g fill="#fafafa" fill-opacity="1"><g transform="translate(1348.352032, 466.149933)"><g><path d="M 83.109375 -84.9375 C 97.265625 -84.9375 108.585938 -80.382812 117.078125 -71.28125 C 125.578125 -62.175781 129.828125 -51.15625 129.828125 -38.21875 C 129.828125 -25.675781 125.578125 -14.851562 117.078125 -5.75 C 108.585938 3.339844 97.265625 7.890625 83.109375 7.890625 C 69.359375 7.890625 58.132812 3.339844 49.4375 -5.75 C 40.75 -14.851562 36.40625 -25.675781 36.40625 -38.21875 C 36.40625 -51.15625 40.75 -62.175781 49.4375 -71.28125 C 58.132812 -80.382812 69.359375 -84.9375 83.109375 -84.9375 Z M 83.109375 -84.9375 "/></g></g></g></g></g></svg>