<svg xmlns="http://www.w3.org/2000/svg" xmlns:xlink="http://www.w3.org/1999/xlink" width="2000" zoomAndPan="magnify" viewBox="0 0 1500 1499.999933" height="2000" preserveAspectRatio="xMidYMid meet" version="1.0"><defs><g/><clipPath id="b1ad777825"><rect x="0" width="1164" y="0" height="1448"/></clipPath></defs><g transform="matrix(1, 0, 0, 1, 138, 52)"><g clip-path="url(#b1ad777825)"><g fill="#fafafa" fill-opacity="1"><g transform="translate(16.120502, 682.728937)"><g><path d="M 544.53125 0 L 500.9375 -88.984375 L 179.734375 -88.984375 L 137.03125 0 L -5.34375 0 L 344.34375 -674.4375 L 694.90625 0 Z M 339 -419.96875 L 239.34375 -213.546875 L 440.4375 -213.546875 Z M 339 -419.96875 "/></g></g></g><g fill="#fafafa" fill-opacity="1"><g transform="translate(661.204483, 682.728937)"><g><path d="M 497.375 -224.21875 L 497.375 0 L 371.921875 0 L 371.921875 -224.21875 C 371.921875 -260.40625 362.875 -287.539062 344.78125 -305.625 C 326.6875 -323.71875 304.59375 -332.765625 278.5 -332.765625 C 260.101562 -332.765625 242.601562 -328.164062 226 -318.96875 C 209.394531 -309.78125 196.046875 -297.03125 185.953125 -280.71875 C 175.867188 -264.40625 170.828125 -245.570312 170.828125 -224.21875 L 170.828125 0 L 44.484375 0 L 44.484375 -662.875 L 170.828125 -662.875 L 170.828125 -417.296875 C 182.691406 -432.128906 200.335938 -442.804688 223.765625 -449.328125 C 247.203125 -455.859375 269.003906 -459.125 289.171875 -459.125 C 330.097656 -459.125 366.28125 -448.59375 397.71875 -427.53125 C 429.164062 -406.476562 453.632812 -378.15625 471.125 -342.5625 C 488.625 -306.96875 497.375 -267.519531 497.375 -224.21875 Z M 497.375 -224.21875 "/></g></g></g><g fill="#fafafa" fill-opacity="1"><g transform="translate(68.151693, 1393.439552)"><g><path d="M 44.484375 -662.875 L 170.828125 -662.875 L 170.828125 0 L 44.484375 0 Z M 44.484375 -662.875 "/></g></g></g><g fill="#fafafa" fill-opacity="1"><g transform="translate(238.987534, 1393.439552)"><g><path d="M 38.265625 -215.328125 L 38.265625 -449.328125 L 164.609375 -449.328125 L 164.609375 -226 C 164.609375 -193.375 173.648438 -166.828125 191.734375 -146.359375 C 209.828125 -125.898438 231.628906 -115.671875 257.140625 -115.671875 C 276.117188 -115.671875 293.765625 -119.082031 310.078125 -125.90625 C 326.390625 -132.726562 339.734375 -144.296875 350.109375 -160.609375 C 360.492188 -176.921875 365.6875 -198.71875 365.6875 -226 L 365.6875 -449.328125 L 491.15625 -449.328125 L 491.15625 0 L 365.6875 0 L 365.6875 -32.03125 C 352.644531 -17.789062 333.8125 -7.257812 309.1875 -0.4375 C 284.570312 6.375 261.585938 9.78125 240.234375 9.78125 C 201.085938 9.78125 166.238281 -0.445312 135.6875 -20.90625 C 105.132812 -41.375 81.257812 -68.660156 64.0625 -102.765625 C 46.863281 -136.867188 38.265625 -174.390625 38.265625 -215.328125 Z M 38.265625 -215.328125 "/></g></g></g><g fill="#fafafa" fill-opacity="1"><g transform="translate(730.141105, 1393.439552)"><g><path d="M 44.484375 -662.875 L 170.828125 -662.875 L 170.828125 0 L 44.484375 0 Z M 44.484375 -662.875 "/></g></g></g><g fill="#fafafa" fill-opacity="1"><g transform="translate(900.976998, 1393.439552)"><g><path d="M 121.890625 -124.5625 C 142.660156 -124.5625 159.269531 -117.890625 171.71875 -104.546875 C 184.175781 -91.203125 190.40625 -75.039062 190.40625 -56.0625 C 190.40625 -37.664062 184.175781 -21.796875 171.71875 -8.453125 C 159.269531 4.886719 142.660156 11.5625 121.890625 11.5625 C 101.722656 11.5625 85.265625 4.886719 72.515625 -8.453125 C 59.765625 -21.796875 53.390625 -37.664062 53.390625 -56.0625 C 53.390625 -75.039062 59.765625 -91.203125 72.515625 -104.546875 C 85.265625 -117.890625 101.722656 -124.5625 121.890625 -124.5625 Z M 121.890625 -124.5625 "/></g></g></g></g></g></svg>